<?xml version="1.0" encoding="utf-8"?>
<!-- Generator: Adobe Illustrator 19.0.0, SVG Export Plug-In . SVG Version: 6.00 Build 0)  -->
<svg version="1.1" id="Layer_1" xmlns="http://www.w3.org/2000/svg" xmlns:xlink="http://www.w3.org/1999/xlink" x="0px" y="0px"
	 viewBox="0 0 2500 2500" style="enable-background:new 0 0 2500 2500;" xml:space="preserve">
<style type="text/css">
	.st0{fill:#009FA3;}
	.st1{fill:#FBAE18;}
	.st2{fill:#FFFFFF;stroke:#FFFFFF;stroke-miterlimit:10;}
	.st3{fill:#FFFFFF;}
</style>
<polygon id="XMLID_44_" class="st0" points="1789,699.8 1789,1509.8 952.5,1509.8 952.5,1315.3 1162.2,1315.3 1162.2,1120.7 
	1371.9,1120.7 1371.9,926.2 1581.7,926.2 1581.7,699.8 "/>
<polygon id="XMLID_43_" class="st1" points="709,1674.3 709.1,699.8 1545.6,699.8 1545.6,894.3 1335.9,894.3 1335.9,1088.9 
	1126.2,1088.9 1126.2,1283.4 916.5,1283.4 916.4,1674.3 "/>
<polygon id="XMLID_42_" class="st2" points="952.5,1674.3 952.5,1641.1 1028.6,1641.1 1028.6,1624.5 952.5,1624.5 952.5,1541.5 
	1066.6,1541.5 1066.6,1574.7 990.5,1574.7 990.5,1591.3 1066.6,1591.3 1066.6,1674.3 "/>
<polygon id="XMLID_41_" class="st3" points="1123.6,1674.3 1123.6,1574.7 1085.6,1574.7 1085.6,1541.5 1199.7,1541.5 1199.7,1574.7 
	1161.6,1574.7 1161.6,1674.3 "/>
<path id="XMLID_86_" class="st3" d="M1218.7,1674.3v-132.8h114.1v66.4h-0.1l-9.4,8.3l9.5,8.3v49.8h-38v-49.8h-38v49.8H1218.7z
	 M1294.7,1574.7h-38v16.6h38V1574.7z"/>
<rect id="XMLID_38_" x="1351.8" y="1541.5" class="st3" width="38" height="132.8"/>
<polygon id="XMLID_37_" class="st3" points="1408.8,1624.5 1408.8,1541.5 1446.8,1541.5 1446.8,1624.5 1465.8,1642.4 1484.8,1624.5 
	1484.8,1541.5 1522.9,1541.5 1522.9,1624.5 1465.8,1681.2 "/>
<polygon id="XMLID_36_" class="st3" points="1541.9,1674.3 1541.9,1541.5 1655.9,1541.5 1655.9,1574.7 1579.9,1574.7 1579.9,1591.3 
	1636.9,1591.3 1636.9,1624.5 1579.9,1624.5 1579.9,1641.1 1655.9,1641.1 1655.9,1674.3 "/>
<polygon id="XMLID_35_" class="st3" points="1675,1674.3 1675,1541.5 1789,1541.5 1789,1674.3 1751,1674.3 1751,1574.7 1713,1574.7 
	1713,1674.3 "/>
</svg>
