<?xml version="1.0" encoding="utf-8"?>
<!-- Generator: Adobe Illustrator 19.0.0, SVG Export Plug-In . SVG Version: 6.00 Build 0)  -->
<svg version="1.1" id="Layer_1" xmlns="http://www.w3.org/2000/svg" xmlns:xlink="http://www.w3.org/1999/xlink" x="0px" y="0px"
	 viewBox="710 -710 2500 2500" style="enable-background:new 710 -710 2500 2500;" xml:space="preserve">
<style type="text/css">
	.st0{fill:#009FA3;}
	.st1{display:none;fill:#FBAE18;}
	.st2{fill:#FAAD1A;}
</style>
<g id="Layer_1_1_">
	<polygon id="XMLID_44_" class="st0" points="2499,-10.2 2499,799.8 1662.5,799.8 1662.5,605.3 1872.2,605.3 1872.2,410.7 
		2081.9,410.7 2081.9,216.2 2291.7,216.2 2291.7,-10.2 	"/>
	<polygon id="XMLID_43_" class="st1" points="1419,964.3 1419.1,-10.2 2255.6,-10.2 2255.6,184.3 2045.9,184.3 2045.9,378.9 
		1836.2,378.9 1836.2,573.4 1626.5,573.4 1626.4,964.3 	"/>
</g>
<g id="Layer_2">
	<polygon id="XMLID_1_" class="st2" points="2255.6,-10.2 1419.1,-10.2 1419.1,799.8 1626.5,799.8 1626.5,573.4 1836.2,573.4 
		1836.2,378.9 2045.9,378.9 2045.9,184.3 2255.6,184.3 	"/>
</g>
</svg>
