<?xml version="1.0" encoding="utf-8"?>
<!-- Generator: Adobe Illustrator 19.0.0, SVG Export Plug-In . SVG Version: 6.00 Build 0)  -->
<svg version="1.1" xmlns="http://www.w3.org/2000/svg" xmlns:xlink="http://www.w3.org/1999/xlink" x="0px" y="0px"
	 viewBox="0 0 2500 2500" style="enable-background:new 0 0 2500 2500;" xml:space="preserve">
<style type="text/css">
	.st0{fill:#009FA3;}
	.st1{display:none;fill:#FBAE18;}
	.st2{fill:#FFFFFF;stroke:#FFFFFF;stroke-miterlimit:10;}
	.st3{fill:#FFFFFF;}
	.st4{fill:#FAAD1A;}
</style>
<g id="Layer_1">
	<polygon id="XMLID_44_" class="st0" points="1789,699.8 1789,1509.8 952.5,1509.8 952.5,1315.3 1162.2,1315.3 1162.2,1120.7 
		1371.9,1120.7 1371.9,926.2 1581.7,926.2 1581.7,699.8 	"/>
	<polygon id="XMLID_43_" class="st1" points="709,1674.3 709.1,699.8 1545.6,699.8 1545.6,894.3 1335.9,894.3 1335.9,1088.9 
		1126.2,1088.9 1126.2,1283.4 916.5,1283.4 916.4,1674.3 	"/>
	<polygon id="XMLID_42_" class="st2" points="709.1,1674.3 709.1,1641.1 807.3,1641.1 807.3,1624.5 709.1,1624.5 709.1,1541.5 
		856.4,1541.5 856.4,1574.7 758.2,1574.7 758.2,1591.3 856.4,1591.3 856.4,1674.3 	"/>
	<polygon id="XMLID_41_" class="st3" points="930,1674.3 930,1574.7 880.9,1574.7 880.9,1541.5 1028.2,1541.5 1028.2,1574.7 
		979.1,1574.7 979.1,1674.3 	"/>
	<path id="XMLID_86_" class="st3" d="M1052.7,1674.3v-132.8H1200v66.4h-0.1l-12.1,8.3l12.3,8.3v49.8h-49.1v-49.8h-49.1v49.8H1052.7z
		 M1150.9,1574.7h-49.1v16.6h49.1V1574.7z"/>
	<rect id="XMLID_38_" x="1224.5" y="1541.5" class="st3" width="49.1" height="132.8"/>
	<polygon id="XMLID_37_" class="st3" points="1298.2,1624.5 1298.2,1541.5 1347.2,1541.5 1347.2,1624.5 1371.8,1642.4 
		1396.3,1624.5 1396.3,1541.5 1445.4,1541.5 1445.4,1624.5 1371.8,1681.2 	"/>
	<polygon id="XMLID_36_" class="st3" points="1470,1674.3 1470,1541.5 1617.2,1541.5 1617.2,1574.7 1519,1574.7 1519,1591.3 
		1592.7,1591.3 1592.7,1624.5 1519,1624.5 1519,1641.1 1617.2,1641.1 1617.2,1674.3 	"/>
	<polygon id="XMLID_35_" class="st3" points="1641.8,1674.3 1641.8,1541.5 1789,1541.5 1789,1674.3 1739.9,1674.3 1739.9,1574.7 
		1690.8,1574.7 1690.8,1674.3 	"/>
</g>
<g id="Layer_2">
	<polygon id="XMLID_1_" class="st4" points="1545.6,699.8 709.1,699.8 709.1,1509.8 916.5,1509.8 916.5,1283.4 1126.2,1283.4 
		1126.2,1088.9 1335.9,1088.9 1335.9,894.3 1545.6,894.3 	"/>
</g>
</svg>
