<svg id="Layer_1" data-name="Layer 1" xmlns="http://www.w3.org/2000/svg" viewBox="0 0 1000 1000"><defs><style>.cls-1{fill:#009fa3;}.cls-2{fill:#fbae18;}.cls-3{fill:#231f20;}</style></defs><polygon class="cls-1" points="905.53 32.91 905.53 729.51 277.33 729.51 277.33 562.22 434.82 562.22 434.82 394.93 592.31 394.93 592.31 227.63 749.8 227.63 749.8 32.91 905.53 32.91"/><polygon class="cls-2" points="94.47 871.05 94.54 32.91 722.75 32.91 722.75 200.21 565.26 200.21 565.26 367.5 407.78 367.5 407.78 534.79 250.29 534.79 250.22 871.05 94.47 871.05"/><path class="cls-3" d="M277.34,871.05V842.5h57.1V828.22h-57.1V756.84H363v28.55H305.89v14.28H363v71.38Z"/><path class="cls-3" d="M405.83,871.05V785.39H377.28V756.84h85.66v28.55H434.38v85.66Z"/><path class="cls-3" d="M477.22,871.05V756.84h85.66v57.1h-.09l-7,7.14,7.14,7.14v42.83H534.32V828.22H505.77v42.83Zm57.1-71.38V785.39H505.77v14.28Z"/><path class="cls-3" d="M577.15,871.05V756.84h28.56V871.05Z"/><path class="cls-3" d="M620,828.22V756.84h28.56v71.38l14.28,15.33,14.27-15.33V756.84h28.56v71.38L662.81,877Z"/><path class="cls-3" d="M719.92,871.05V756.84h85.67v28.55H748.48v14.28h42.83v28.55H748.48V842.5h57.11v28.55Z"/><path class="cls-3" d="M819.86,871.05V756.84h85.67V871.05H877V785.39H848.42v85.66Z"/><path class="cls-3" d="M236.91,929l-2,21.31h-2.6l3.94-42.6h7.62c8.6,0,11.34,3.24,10.84,9.36l-.21,2.22c-.56,5.89-3.14,8.19-7.29,8.94,4.48,1,5.6,3.84,5.14,9-.32,3.7-.87,10.44-.49,13.08h-2.6c-.38-2.33.2-9.81.55-13.23.63-6.33-1.57-8.08-8-8.08Zm.17-1.64h5.19c7.16,0,9.14-2.62,9.6-8l.21-2.27c.41-4.63-1-7.74-8.37-7.74h-5Z"/><path class="cls-3" d="M263.57,934c-.08.24-.47,6.25-.56,6.56-.51,4.95.66,8.63,6.25,8.63s6.68-3,7-7l.08-.45H279l-.1.44c-.36,4-1.72,8.67-9.79,8.67-7.6,0-9.19-4.08-8.64-10.2l1.13-13.49c.58-5.7,3.5-9.31,10.19-9.31,7.22,0,9.2,4,8.65,9.31-.08,1.43-.49,5.33-.58,6.87Zm13.82-1.64c.07-.22.4-4.79.46-5,.42-3.82-.24-7.91-6.2-7.91-5.69,0-7.07,3.66-7.49,8l-.44,4.93Z"/><path class="cls-3" d="M304.29,941.36l-.08.54c-.33,4.37-1.79,9-9.75,9-7.26,0-9.12-3.65-8.61-9.85l1.24-14c.58-6,3.48-9.2,10-9.2,7.56,0,9,4.18,8.6,8.54l-.14,1.1h-2.64l.13-.83c.37-4-.65-7.18-6.11-7.18-4.69,0-6.66,2.5-7.2,7.86l-1.25,13.71c-.48,4.93.82,8.17,6.11,8.17,4.58,0,6.47-2,6.95-7.36l.07-.51Z"/><path class="cls-3" d="M312.67,929.29c.46-4.93.74-8.61.86-10.92H316a33.57,33.57,0,0,1-.28,5.19c1.7-3.6,5.77-5.47,9.68-5.63l-.19,2.09c-6.26.42-9.49,4.18-10,10l-1.89,20.32h-2.6Z"/><path class="cls-3" d="M330.38,934c-.08.24-.47,6.25-.56,6.56-.51,4.95.66,8.63,6.25,8.63s6.68-3,7-7l.09-.45h2.58l-.1.44c-.36,4-1.72,8.67-9.79,8.67-7.6,0-9.19-4.08-8.64-10.2l1.13-13.49c.58-5.7,3.5-9.31,10.19-9.31,7.22,0,9.2,4,8.65,9.31-.07,1.43-.49,5.33-.58,6.87Zm13.82-1.64c.07-.22.4-4.79.46-5,.43-3.82-.24-7.91-6.2-7.91-5.69,0-7.07,3.66-7.49,8l-.44,4.93Z"/><path class="cls-3" d="M370.09,945.69c-.1,1.7-.29,3.75-.3,4.66h-2.47a14.85,14.85,0,0,1,.05-3.5c-1.65,3-4.31,4-8,4-6.31,0-8.38-3.9-7.92-8.71v-.25c.61-6.76,5.88-9.41,14.42-9.81l2.82-.06.56-6.69c.35-3-.48-5.8-5.58-5.8s-6.14,2.88-6.52,6l-.08.83h-2.58l.07-.84c.33-3.75,2.09-7.64,9.28-7.64,6.75,0,8.48,3.4,8.08,7.3Zm-1.52-12-2.85,0c-7.71.33-11.16,2.9-11.67,8.16v.25c-.4,4,1.13,7,5.71,7,5.78,0,7.72-3.91,8.32-9.71Z"/><path class="cls-3" d="M376.84,918.37h5.79l.77-8.08H386l-.76,8.08h7.05l-.15,1.63h-7l-2.36,25.31c-.21,1.89.19,3.82,3.44,3.82a21.74,21.74,0,0,0,3.25-.24l-.15,1.53a17.63,17.63,0,0,1-3.76.32c-2.79,0-5.74-1-5.37-5.06L382.49,920H376.7Z"/><path class="cls-3" d="M397.84,918.37h2.59l-2.95,32h-2.59Zm1.22-12.43h2.6l-.53,5.78h-2.6Z"/><path class="cls-3" d="M409.22,927.76c.58-6.3.76-8,.78-9.39h2.48a35.18,35.18,0,0,1-.22,3.83c1.38-2.68,4.23-4.34,8.59-4.34,4.21,0,8.38,1.4,7.81,7.6l-2.3,24.89h-2.6L426,926c.39-4.18-1.06-6.4-5.6-6.4-5.4,0-8.15,3.06-8.75,10l-1.92,20.78h-2.6Z"/><path class="cls-3" d="M454,952c-.61,6.42-3.05,9.81-10.69,9.81-7.42,0-9.19-3.65-8.95-6.9l0-.25H437l0,.25c-.16,2.52,1.14,5.27,6.48,5.27,6.15,0,7.42-3.14,7.91-8.24l.54-5.79c-1.16,2.6-3.44,4.3-8.05,4.3-5.5,0-8.71-2.62-8.2-9.2L437,926.9c.45-6,3.94-9,10-9,5,0,6.91,2.24,7.32,4,.13-1.08.4-2.29.56-3.52h2.35c-.2,1.35-.65,4.72-1,8.9Zm-14.35-24.91-1.31,14c-.39,4.88,1.28,7.64,5.89,7.64,6.73,0,8.1-5.69,8.64-11.24l.62-8.12c.54-5.14.08-9.81-6.45-9.81C442.29,919.55,440.07,922.07,439.64,927.05Z"/><path class="cls-3" d="M474.27,918.37h5.79l.77-8.08h2.55l-.76,8.08h7.05l-.15,1.63h-7l-2.35,25.31c-.22,1.89.19,3.82,3.44,3.82a21.84,21.84,0,0,0,3.25-.24l-.15,1.53a17.63,17.63,0,0,1-3.76.32c-2.79,0-5.75-1-5.37-5.06L479.91,920h-5.78Z"/><path class="cls-3" d="M498.65,905.94l-1.49,16.11c1.18-2.38,4-4.19,8.39-4.19,5.61,0,8.39,2.49,7.88,8.12l-2.25,24.37h-2.6l2.21-23.84c.38-4.1-.48-6.93-5.66-6.93-5.94,0-8.1,3.79-8.65,9.81l-1.94,21h-2.6l4.11-44.41Z"/><path class="cls-3" d="M523.66,934c-.08.24-.47,6.25-.56,6.56-.51,4.95.66,8.63,6.25,8.63s6.68-3,7-7l.09-.45h2.58l-.1.44c-.36,4-1.72,8.67-9.79,8.67-7.6,0-9.19-4.08-8.64-10.2l1.13-13.49c.58-5.7,3.51-9.31,10.19-9.31,7.22,0,9.2,4,8.66,9.31-.08,1.43-.5,5.33-.59,6.87Zm13.82-1.64c.07-.22.4-4.79.47-5,.42-3.82-.25-7.91-6.21-7.91-5.69,0-7.07,3.66-7.49,8l-.44,4.93Z"/><path class="cls-3" d="M577.91,928.23H564.34l-1.87,20.49h15.34l-.58,1.63H559.71l3.94-42.6h17.07l-.15,1.63H566.1l-1.62,17.22h13.59Z"/><path class="cls-3" d="M606.11,905.94l-3.44,37.12c-.22,2.46-.43,5.28-.52,7.29h-2.47a24.46,24.46,0,0,1,.14-3.79c-1,2.17-3.13,4.3-8.17,4.3-6.57,0-8.83-3.45-8.23-9.92l1.25-13.59c.53-6,3.71-9.49,10.19-9.49,5.1,0,6.74,2,7.19,3.45l1.46-15.37ZM587.3,927.45l-1.21,13.26c-.43,5.25.83,8.46,5.89,8.46,6.49,0,8-5,8.66-11.21l.73-8.76c.57-5.43,0-9.65-6.55-9.65C590,919.55,587.79,922.33,587.3,927.45Z"/><path class="cls-3" d="M631.07,942.66c-.33,3.38-.59,6.41-.61,7.69H628a28.73,28.73,0,0,1,.19-4c-1.4,3.09-3.93,4.53-8.25,4.53-3.6,0-8.39-.8-7.75-7.81l2.28-24.68h2.6l-2.24,24.21c-.43,4.56,1.1,6.61,5.48,6.61,4.11,0,7.72-1.83,8.52-10.45l1.88-20.37h2.62Z"/><path class="cls-3" d="M658.1,941.36l-.08.54c-.34,4.37-1.79,9-9.75,9-7.26,0-9.12-3.65-8.61-9.85l1.24-14c.58-6,3.48-9.2,10-9.2,7.56,0,9,4.18,8.59,8.54l-.14,1.1h-2.63l.12-.83c.38-4-.64-7.18-6.1-7.18-4.69,0-6.66,2.5-7.2,7.86l-1.25,13.71c-.48,4.93.82,8.17,6.11,8.17,4.57,0,6.46-2,7-7.36l.07-.51Z"/><path class="cls-3" d="M682.05,945.69c-.1,1.7-.29,3.75-.3,4.66h-2.48a16,16,0,0,1,.05-3.5c-1.64,3-4.31,4-8,4-6.31,0-8.38-3.9-7.93-8.71v-.25c.61-6.76,5.89-9.41,14.43-9.81l2.82-.06.56-6.69c.34-3-.49-5.8-5.58-5.8s-6.14,2.88-6.53,6l-.08.83h-2.58l.08-.84c.33-3.75,2.09-7.64,9.28-7.64,6.75,0,8.48,3.4,8.07,7.3Zm-1.52-12-2.85,0c-7.72.33-11.16,2.9-11.67,8.16v.25c-.4,4,1.13,7,5.7,7,5.79,0,7.72-3.91,8.33-9.71Z"/><path class="cls-3" d="M688.8,918.37h5.79l.77-8.08h2.55l-.76,8.08h7l-.14,1.63h-7l-2.35,25.31c-.22,1.89.19,3.82,3.43,3.82a21.63,21.63,0,0,0,3.25-.24l-.14,1.53a17.67,17.67,0,0,1-3.77.32c-2.78,0-5.74-1-5.36-5.06L694.44,920h-5.78Z"/><path class="cls-3" d="M709.79,918.37h2.6l-2.95,32h-2.6ZM711,905.94h2.6l-.53,5.78h-2.6Z"/><path class="cls-3" d="M739.56,926.83l-1.29,14.57c-.61,6.88-4.24,9.46-10.4,9.46-5.92,0-9.63-2.6-9-9.29l1.34-14.93c.49-5.67,3.88-8.78,10.3-8.78C737.09,917.86,740.13,921,739.56,926.83Zm-16.7-.18-1.37,14.94c-.52,5.19,1.91,7.64,6.52,7.64,4.44,0,7-1.92,7.59-7.58l1.31-14.72c.54-5-1.89-7.44-6.59-7.44C726,919.49,723.32,921.51,722.86,926.65Z"/><path class="cls-3" d="M748,927.76c.59-6.3.76-8,.79-9.39h2.48a36,36,0,0,1-.23,3.83c1.38-2.68,4.23-4.34,8.59-4.34s8.38,1.4,7.81,7.6l-2.3,24.89h-2.59L764.77,926c.39-4.18-1.06-6.4-5.6-6.4-5.39,0-8.14,3.06-8.75,10l-1.92,20.78h-2.59Z"/></svg>