<?xml version="1.0" encoding="utf-8"?>
<!-- Generator: Adobe Illustrator 19.0.0, SVG Export Plug-In . SVG Version: 6.00 Build 0)  -->
<svg version="1.1" id="Layer_1" xmlns="http://www.w3.org/2000/svg" xmlns:xlink="http://www.w3.org/1999/xlink" x="0px" y="0px"
	 viewBox="710 -710 2500 2500" style="enable-background:new 710 -710 2500 2500;" xml:space="preserve">
<style type="text/css">
	.st0{fill:#009FA3;}
	.st1{display:none;fill:#FBAE18;}
	.st2{fill:#FAAD1A;}
</style>
<g id="Layer_1_1_">
	<path id="XMLID_44_" class="st0" d="M2499,17.1v755.5c0,15-12.2,27.3-27.3,27.3h-782c-15,0-27.3-12.2-27.3-27.3v-140
		c0-15,12.2-27.3,27.3-27.3h155.2c15,0,27.3-12.2,27.3-27.3V437.9c0-15,12.2-27.3,27.3-27.3h155.2c15,0,27.3-12.2,27.3-27.3v-140
		c0-15,12.2-27.3,27.3-27.3h155.3c15,0,27.3-12.2,27.3-27.3V17.1c0-15,12.2-27.3,27.3-27.3h152.8C2486.8-10.2,2499,2,2499,17.1z"/>
	<path id="XMLID_43_" class="st1" d="M1419,937l0.1-920c0-15,12.2-27.2,27.3-27.2h782c15,0,27.3,12.2,27.3,27.3v140
		c0,15-12.2,27.3-27.3,27.3h-155.2c-15,0-27.3,12.2-27.3,27.3v140.1c0,15-12.2,27.3-27.3,27.3h-155.2c-15,0-27.3,12.2-27.3,27.3v140
		c0,15-12.2,27.3-27.3,27.3h-155.2c-15,0-27.2,12.2-27.3,27.2l-0.1,336.4c0,15-12.2,27.2-27.3,27.2h-152.9
		C1431.2,964.3,1419,952.1,1419,937z"/>
</g>
<g id="Layer_2">
	<path id="XMLID_1_" class="st2" d="M2228.6-10.2H1446c-14.9,0-26.9,12.1-26.9,26.9v756.1c0,14.9,12.1,26.9,26.9,26.9h153.5
		c14.9,0,26.9-12.1,26.9-26.9V600.3c0-14.9,12.1-26.9,26.9-26.9h155.8c14.9,0,26.9-12.1,26.9-26.9V405.9c0-14.9,12.1-26.9,26.9-26.9
		H2019c14.9,0,26.9-12.1,26.9-26.9V211.2c0-14.9,12.1-26.9,27-26.9h155.8c14.9,0,27-12.1,27-26.9V16.7
		C2255.6,1.9,2243.5-10.2,2228.6-10.2z"/>
</g>
</svg>
